<svg width="1344" height="452" viewBox="0 0 1344 452" fill="none" xmlns="http://www.w3.org/2000/svg">
<g clip-path="url(#clip0_2885_40751)">
<rect width="1344" height="452" fill="white"/>
<rect x="-31.5" y="-26.9785" width="1414.86" height="505.959" fill="#1E1E1E"/>
<path d="M150.918 268.659V181.805H181.487C185.611 181.805 189.452 182.492 193.011 183.867C196.65 185.161 199.804 187.021 202.472 189.447C205.141 191.873 207.244 194.784 208.78 198.181C210.317 201.496 211.085 205.176 211.085 209.219C211.085 213.344 210.317 217.104 208.78 220.501C207.244 223.816 205.141 226.687 202.472 229.113C199.804 231.539 196.65 233.44 193.011 234.815C189.452 236.109 185.611 236.756 181.487 236.756H167.294V268.659H150.918ZM181.729 221.229C186.015 221.229 189.25 220.016 191.434 217.589C193.617 215.163 194.709 212.373 194.709 209.219C194.709 207.683 194.426 206.187 193.86 204.731C193.374 203.276 192.566 202.022 191.434 200.971C190.382 199.839 189.048 198.949 187.431 198.302C185.813 197.655 183.913 197.332 181.729 197.332H167.294V221.229H181.729Z" fill="white"/>
<path d="M217.125 209.219H232.046V217.468H233.016C233.744 216.012 234.715 214.678 235.928 213.465C237.141 212.252 238.475 211.201 239.931 210.311C241.467 209.422 243.085 208.734 244.783 208.249C246.562 207.764 248.301 207.521 249.999 207.521C252.102 207.521 253.881 207.723 255.336 208.128C256.873 208.532 258.167 209.058 259.218 209.705L254.972 224.14C254.002 223.655 252.91 223.291 251.697 223.048C250.565 222.725 249.15 222.563 247.452 222.563C245.268 222.563 243.287 223.008 241.508 223.897C239.728 224.706 238.192 225.879 236.898 227.415C235.685 228.952 234.715 230.771 233.987 232.874C233.34 234.896 233.016 237.119 233.016 239.546V268.659H217.125V209.219Z" fill="white"/>
<path d="M287.355 207.279C291.965 207.279 296.17 208.087 299.971 209.705C303.852 211.241 307.168 213.425 309.918 216.255C312.748 219.005 314.931 222.32 316.468 226.202C318.085 230.084 318.894 234.329 318.894 238.939C318.894 243.549 318.085 247.794 316.468 251.676C314.931 255.558 312.748 258.914 309.918 261.744C307.168 264.494 303.852 266.677 299.971 268.295C296.17 269.831 291.965 270.599 287.355 270.599C282.745 270.599 278.5 269.831 274.618 268.295C270.817 266.677 267.501 264.494 264.671 261.744C261.921 258.914 259.738 255.558 258.121 251.676C256.584 247.794 255.816 243.549 255.816 238.939C255.816 234.329 256.584 230.084 258.121 226.202C259.738 222.32 261.921 219.005 264.671 216.255C267.501 213.425 270.817 211.241 274.618 209.705C278.5 208.087 282.745 207.279 287.355 207.279ZM287.355 255.922C289.377 255.922 291.318 255.558 293.178 254.83C295.118 254.021 296.817 252.889 298.272 251.433C299.728 249.978 300.86 248.199 301.669 246.096C302.558 243.993 303.003 241.608 303.003 238.939C303.003 236.27 302.558 233.885 301.669 231.782C300.86 229.679 299.728 227.9 298.272 226.445C296.817 224.989 295.118 223.897 293.178 223.169C291.318 222.361 289.377 221.956 287.355 221.956C285.252 221.956 283.271 222.361 281.411 223.169C279.551 223.897 277.893 224.989 276.438 226.445C274.982 227.9 273.809 229.679 272.92 231.782C272.111 233.885 271.707 236.27 271.707 238.939C271.707 241.608 272.111 243.993 272.92 246.096C273.809 248.199 274.982 249.978 276.438 251.433C277.893 252.889 279.551 254.021 281.411 254.83C283.271 255.558 285.252 255.922 287.355 255.922Z" fill="white"/>
<path d="M324.281 209.219H339.201V216.983H340.172C342.032 214.072 344.539 211.726 347.692 209.947C350.927 208.168 354.485 207.279 358.367 207.279C362.896 207.279 366.697 208.33 369.77 210.432C372.843 212.535 375.026 215.123 376.32 218.196C378.18 215.204 380.809 212.656 384.205 210.554C387.602 208.37 391.726 207.279 396.578 207.279C400.217 207.279 403.371 207.885 406.04 209.098C408.708 210.23 410.892 211.848 412.59 213.95C414.369 216.053 415.704 218.6 416.593 221.592C417.483 224.504 417.928 227.698 417.928 231.176V268.659H402.037V234.087C402.037 226 398.721 221.956 392.09 221.956C389.987 221.956 388.127 222.442 386.51 223.412C384.892 224.302 383.518 225.555 382.385 227.172C381.334 228.709 380.485 230.569 379.838 232.752C379.272 234.936 378.989 237.281 378.989 239.788V268.659H363.098V234.087C363.098 226 359.621 221.956 352.666 221.956C350.644 221.956 348.865 222.442 347.329 223.412C345.792 224.302 344.498 225.555 343.447 227.172C342.395 228.709 341.587 230.569 341.021 232.752C340.455 234.936 340.172 237.281 340.172 239.788V268.659H324.281V209.219Z" fill="white"/>
<path d="M426.89 209.219H441.81V216.376H442.781C444.236 213.869 446.501 211.726 449.574 209.947C452.647 208.168 456.448 207.279 460.976 207.279C464.777 207.279 468.376 208.087 471.772 209.705C475.25 211.241 478.283 213.425 480.87 216.255C483.539 219.005 485.642 222.32 487.178 226.202C488.715 230.084 489.483 234.329 489.483 238.939C489.483 243.549 488.715 247.794 487.178 251.676C485.642 255.558 483.539 258.914 480.87 261.744C478.283 264.494 475.25 266.677 471.772 268.295C468.376 269.831 464.777 270.599 460.976 270.599C456.448 270.599 452.647 269.71 449.574 267.931C446.501 266.152 444.236 264.009 442.781 261.502H441.81L442.781 269.993V294.86H426.89V209.219ZM457.701 255.922C459.804 255.922 461.785 255.517 463.645 254.709C465.586 253.9 467.284 252.768 468.74 251.312C470.196 249.856 471.368 248.077 472.258 245.975C473.147 243.872 473.592 241.527 473.592 238.939C473.592 236.351 473.147 234.006 472.258 231.903C471.368 229.801 470.196 228.022 468.74 226.566C467.284 225.11 465.586 223.978 463.645 223.169C461.785 222.361 459.804 221.956 457.701 221.956C455.599 221.956 453.577 222.361 451.636 223.169C449.776 223.897 448.118 224.989 446.663 226.445C445.207 227.9 444.034 229.679 443.145 231.782C442.255 233.885 441.81 236.27 441.81 238.939C441.81 241.608 442.255 243.993 443.145 246.096C444.034 248.199 445.207 249.978 446.663 251.433C448.118 252.889 449.776 254.021 451.636 254.83C453.577 255.558 455.599 255.922 457.701 255.922Z" fill="white"/>
<path d="M500.179 222.806H489.746V209.219H500.179V191.024H516.069V209.219H530.626V222.806H516.069V245.853C516.069 247.228 516.191 248.522 516.433 249.735C516.757 250.867 517.323 251.838 518.132 252.646C519.264 253.94 520.881 254.587 522.984 254.587C524.359 254.587 525.45 254.466 526.259 254.223C527.068 253.9 527.836 253.496 528.564 253.01L533.052 266.96C531.192 267.85 529.17 268.497 526.987 268.901C524.884 269.386 522.539 269.629 519.951 269.629C516.959 269.629 514.25 269.184 511.824 268.295C509.479 267.324 507.497 266.03 505.88 264.413C502.079 260.774 500.179 255.598 500.179 248.886V222.806Z" fill="white"/>
<path d="M533.824 181.805H551.171L564.636 232.51L566.577 241.85H567.547L570.094 232.51L582.589 193.45H597.873L610.489 232.51L612.915 241.729H613.885L615.705 232.51L628.32 181.805H645.667L622.619 268.659H606.85L593.263 226.809L590.716 217.226H589.746L587.198 226.809L573.612 268.659H557.843L533.824 181.805Z" fill="white"/>
<path d="M682.551 262.351H681.581C679.721 264.615 677.456 266.556 674.788 268.173C672.2 269.791 668.844 270.599 664.719 270.599C661.646 270.599 658.735 270.074 655.985 269.022C653.317 268.052 650.971 266.677 648.95 264.898C646.928 263.119 645.351 260.976 644.219 258.469C643.087 255.962 642.521 253.212 642.521 250.22C642.521 247.147 643.127 244.398 644.34 241.972C645.553 239.465 647.251 237.322 649.435 235.542C651.618 233.763 654.166 232.429 657.077 231.539C660.069 230.569 663.304 230.084 666.781 230.084C670.663 230.084 673.858 230.407 676.365 231.054C678.871 231.62 680.934 232.227 682.551 232.874V231.054C682.551 227.9 681.298 225.312 678.791 223.291C676.284 221.188 673.17 220.137 669.45 220.137C663.951 220.137 659.301 222.442 655.5 227.051L643.976 219.166C650.284 211.241 658.897 207.279 669.814 207.279C679.033 207.279 686.069 209.462 690.921 213.829C695.773 218.115 698.199 224.504 698.199 232.995V268.659H682.551V262.351ZM682.551 244.519C680.691 243.629 678.75 242.942 676.728 242.457C674.788 241.891 672.644 241.608 670.299 241.608C666.498 241.608 663.547 242.457 661.444 244.155C659.422 245.772 658.411 247.794 658.411 250.22C658.411 252.646 659.382 254.587 661.323 256.043C663.344 257.499 665.649 258.226 668.237 258.226C670.34 258.226 672.281 257.862 674.06 257.135C675.839 256.326 677.335 255.315 678.548 254.102C679.842 252.808 680.812 251.352 681.459 249.735C682.187 248.037 682.551 246.298 682.551 244.519Z" fill="white"/>
<path d="M707.195 209.219H722.115V217.468H723.086C723.813 216.012 724.784 214.678 725.997 213.465C727.21 212.252 728.544 211.201 730 210.311C731.536 209.422 733.154 208.734 734.852 208.249C736.631 207.764 738.37 207.521 740.068 207.521C742.171 207.521 743.95 207.723 745.406 208.128C746.942 208.532 748.236 209.058 749.287 209.705L745.042 224.14C744.071 223.655 742.979 223.291 741.766 223.048C740.634 222.725 739.219 222.563 737.521 222.563C735.337 222.563 733.356 223.008 731.577 223.897C729.798 224.706 728.261 225.879 726.967 227.415C725.754 228.952 724.784 230.771 724.056 232.874C723.409 234.896 723.086 237.119 723.086 239.546V268.659H707.195V209.219Z" fill="white"/>
<path d="M774.118 270.599C770.236 270.599 766.759 270.114 763.685 269.144C760.693 268.173 758.065 266.92 755.801 265.383C753.617 263.766 751.757 261.946 750.221 259.925C748.684 257.822 747.512 255.719 746.703 253.617L760.896 247.552C762.27 250.625 764.09 252.929 766.354 254.466C768.699 255.922 771.287 256.649 774.118 256.649C777.029 256.649 779.334 256.124 781.032 255.072C782.73 254.021 783.579 252.768 783.579 251.312C783.579 249.695 782.852 248.401 781.396 247.43C780.021 246.379 777.595 245.449 774.118 244.64L765.748 242.821C763.888 242.416 761.947 241.769 759.925 240.88C757.984 239.99 756.205 238.858 754.588 237.483C752.97 236.109 751.636 234.451 750.585 232.51C749.533 230.569 749.008 228.305 749.008 225.717C749.008 222.806 749.614 220.218 750.827 217.953C752.121 215.689 753.86 213.789 756.043 212.252C758.227 210.635 760.774 209.422 763.685 208.613C766.678 207.723 769.872 207.279 773.269 207.279C778.929 207.279 783.984 208.411 788.432 210.675C792.879 212.859 796.155 216.376 798.257 221.229L784.55 226.809C783.418 224.463 781.76 222.765 779.576 221.714C777.393 220.662 775.209 220.137 773.026 220.137C770.762 220.137 768.78 220.622 767.082 221.592C765.384 222.482 764.535 223.655 764.535 225.11C764.535 226.485 765.222 227.577 766.597 228.386C768.052 229.194 769.993 229.922 772.419 230.569L781.517 232.752C787.582 234.208 792.071 236.553 794.982 239.788C797.974 242.942 799.47 246.702 799.47 251.069C799.47 253.657 798.864 256.124 797.651 258.469C796.438 260.814 794.699 262.917 792.435 264.777C790.251 266.556 787.582 267.971 784.429 269.022C781.355 270.074 777.919 270.599 774.118 270.599Z" fill="white"/>
<path d="M824.648 233.307C824.648 205.113 847.503 182.258 875.696 182.258H1150.77C1178.96 182.258 1201.82 205.113 1201.82 233.307C1201.82 261.5 1178.96 284.355 1150.77 284.355H875.696C847.503 284.355 824.648 261.5 824.648 233.307Z" fill="url(#paint0_linear_2885_40751)"/>
<path d="M824.648 233.307C824.648 205.113 847.503 182.258 875.696 182.258H1150.77C1178.96 182.258 1201.82 205.113 1201.82 233.307C1201.82 261.5 1178.96 284.355 1150.77 284.355H875.696C847.503 284.355 824.648 261.5 824.648 233.307Z" fill="url(#paint1_linear_2885_40751)"/>
<path d="M957.381 253.997H951.945L937.677 213.458H943.452L954.55 246.354H954.776L966.327 213.458H972.102L957.381 253.997Z" fill="black"/>
<path d="M979.876 216.685C979.876 217.704 979.517 218.572 978.8 219.29C978.083 220.007 977.215 220.365 976.196 220.365C975.176 220.365 974.308 220.007 973.591 219.29C972.874 218.572 972.515 217.704 972.515 216.685C972.515 215.666 972.874 214.798 973.591 214.081C974.308 213.363 975.176 213.005 976.196 213.005C977.215 213.005 978.083 213.363 978.8 214.081C979.517 214.798 979.876 215.666 979.876 216.685ZM978.8 226.254V253.997H973.591V226.254H978.8Z" fill="black"/>
<path d="M1016.38 254.45C1014.12 254.45 1012.23 253.752 1010.72 252.355C1009.25 250.959 1008.49 249.015 1008.45 246.524V231.01H1003.58V226.254H1008.45V217.761H1013.66V226.254H1020.46V231.01H1013.66V244.825C1013.66 246.675 1014.02 247.939 1014.74 248.619C1015.46 249.26 1016.27 249.581 1017.17 249.581C1017.59 249.581 1017.98 249.543 1018.36 249.468C1018.78 249.355 1019.15 249.223 1019.49 249.072L1021.14 253.714C1019.78 254.205 1018.19 254.45 1016.38 254.45ZM983.88 226.254H988.863V230.783H989.089C990.637 227.235 993.827 225.461 998.658 225.461L999.734 225.574V231.01L997.412 230.783C994.997 230.783 992.996 231.538 991.411 233.048C989.863 234.52 989.089 236.408 989.089 238.71V253.997H983.88V226.254Z" fill="black"/>
<path d="M1048.11 253.997H1043.13V250.147H1042.9C1042.11 251.506 1040.88 252.639 1039.22 253.544C1037.6 254.45 1035.9 254.903 1034.12 254.903C1030.73 254.903 1028.1 253.941 1026.25 252.016C1024.44 250.053 1023.54 247.279 1023.54 243.693V226.254H1028.74V243.353C1028.86 247.883 1031.14 250.147 1035.6 250.147C1037.67 250.147 1039.41 249.317 1040.8 247.656C1042.2 245.957 1042.9 243.938 1042.9 241.598V226.254H1048.11V253.997Z" fill="black"/>
<path d="M1056.27 245.504C1056.27 246.863 1056.83 247.996 1057.97 248.902C1059.14 249.808 1060.5 250.261 1062.04 250.261C1064.23 250.261 1066.18 249.449 1067.87 247.826C1069.61 246.203 1070.48 244.297 1070.48 242.107C1068.86 240.824 1066.59 240.182 1063.68 240.182C1061.57 240.182 1059.8 240.692 1058.36 241.711C1056.97 242.73 1056.27 243.995 1056.27 245.504ZM1063.01 225.348C1066.86 225.348 1069.89 226.386 1072.12 228.462C1074.35 230.5 1075.46 233.312 1075.46 236.898V253.997H1070.48V250.147H1070.25C1068.1 253.318 1065.23 254.903 1061.65 254.903C1058.59 254.903 1056.02 253.997 1053.95 252.186C1051.91 250.374 1050.89 248.109 1050.89 245.391C1050.89 242.523 1051.96 240.239 1054.12 238.54C1056.31 236.842 1059.21 235.992 1062.84 235.992C1065.93 235.992 1068.48 236.559 1070.48 237.691V236.502C1070.48 234.69 1069.76 233.161 1068.33 231.916C1066.89 230.632 1065.21 229.991 1063.29 229.991C1060.38 229.991 1058.08 231.217 1056.38 233.671L1051.79 230.783C1054.32 227.16 1058.06 225.348 1063.01 225.348Z" fill="black"/>
<path d="M1084.85 213.458V253.997H1079.64V213.458H1084.85Z" fill="black"/>
</g>
<defs>
<linearGradient id="paint0_linear_2885_40751" x1="859.866" y1="192.456" x2="882.712" y2="326.473" gradientUnits="userSpaceOnUse">
<stop stop-color="#B9FE21"/>
<stop offset="1" stop-color="#C6F6CF"/>
</linearGradient>
<linearGradient id="paint1_linear_2885_40751" x1="824.645" y1="233.306" x2="1201.82" y2="233.306" gradientUnits="userSpaceOnUse">
<stop stop-color="#FF7DAF"/>
<stop offset="1" stop-color="#57CAFF"/>
</linearGradient>
<clipPath id="clip0_2885_40751">
<rect width="1344" height="452" fill="white"/>
</clipPath>
</defs>
</svg>
